<svg xmlns="http://www.w3.org/2000/svg" viewBox="0 0 1002.55 235.9"><defs><style>.cls-1{fill:#002d72;}</style></defs><g id="Capa_2" data-name="Capa 2"><g id="Capa_1-2" data-name="Capa 1"><path class="cls-1" d="M237.89,118.57c0-.1,0-.21,0-.31v1C237.88,119,237.89,118.79,237.89,118.57Z"/><path class="cls-1" d="M237.89,117.52c0-.07,0-.14,0-.22v.49C237.88,117.7,237.89,117.61,237.89,117.52Z"/><path class="cls-1" d="M127.86.45C124.94.29,122,.2,118.94.2c-.61,0-1.21,0-1.83,0,1.9,0,3.78.13,5.65.24Z"/><path class="cls-1" d="M432.44,135.87q0,31.29-13.77,54.93a93.34,93.34,0,0,1-38.95,36.56,124.44,124.44,0,0,1-21.33,8.54H474.6l10.84-34.73h92.41l10.77,34.73h58.3V.08L432.36.21Zm99-80.88,28.64,89.61H503.23Z"/><path class="cls-1" d="M368,137.26V0h-67V137.26q0,16.88,10.21,27.66t24.49,10.79a29.31,29.31,0,0,0,23.13-10.62Q368,154.45,368,137.26Z"/><polygon class="cls-1" points="727.68 0.07 786.37 150.79 844.72 0.07 727.68 0.07"/><polygon class="cls-1" points="706.65 235.9 760.55 235.9 706.65 104.12 706.65 235.9"/><polygon class="cls-1" points="866.99 235.9 866.99 104.12 813.1 235.9 866.99 235.9"/><polygon class="cls-1" points="926.76 235.9 1002.55 117.4 926.58 0 926.76 235.9"/><path class="cls-1" d="M250.41,192.54q-12.58-23-12.58-53.36L238.16,0S119,.27,117.11.23q-50.92.59-83.73,33Q0,66.31,0,117.52c0,.18,0,.35,0,.53s0,.35,0,.52q0,51.21,33.38,84.27t85.56,33.06a138,138,0,0,0,35.7-4.45,111.93,111.93,0,0,0,25.69-10.37l14.82,14.82h109.1A97.34,97.34,0,0,1,286,228.07,87.58,87.58,0,0,1,250.41,192.54Zm-70.75-72.76a88.13,88.13,0,0,1-1.31,15.39l-8.75-8.62H125.07v43.86h0l11.35,11.19,1.91,1.88a71.56,71.56,0,0,1-21.82,3.17q-29.05,0-46.28-18.64Q53.32,149.4,53.32,119.78c0-.18,0-.36,0-.54s0-.36,0-.55q0-29.61,16.89-48.25Q87.43,51.81,116.49,51.8A71.79,71.79,0,0,1,138,54.88a52,52,0,0,1,25,15.65Q177,85.85,179.13,108.8a93.12,93.12,0,0,1,.53,9.89c0,.19,0,.36,0,.55S179.66,119.6,179.66,119.78Z"/></g></g></svg>