<svg width="143" height="36" viewBox="0 0 143 36" fill="none" xmlns="http://www.w3.org/2000/svg">
<path d="M61.8408 0.493934V20.312C61.9 23.1187 61.2251 25.8902 59.8867 28.3364C58.5914 30.64 56.6694 32.503 54.3576 33.6955C53.3869 34.1891 52.3737 34.5886 51.3311 34.8888H67.8246L69.3622 29.8584H82.4751L84.0058 34.8924H92.2769V0.476074L61.8408 0.493934ZM71.9063 21.5732L75.8978 8.51119L79.9622 21.6018L71.9063 21.5732Z" fill="white"/>
<path d="M43.1918 20.5155C43.1369 22.0063 43.6572 23.4589 44.6392 24.5562C45.0763 25.057 45.6117 25.4564 46.2101 25.728C46.8085 25.9996 47.4561 26.1373 48.11 26.1318C48.7356 26.1433 49.3556 26.0095 49.924 25.7404C50.4925 25.4714 50.9947 25.0739 51.3935 24.5777C52.2612 23.544 52.695 22.1899 52.695 20.5155V0.46875H43.1918V20.5155Z" fill="white"/>
<path d="M103.748 0.476074L112.078 22.4914L120.359 0.476074H103.748Z" fill="white"/>
<path d="M100.763 34.7533V34.8105H108.413L100.763 15.6748V34.7533Z" fill="white"/>
<path d="M116.698 34.8105H123.504V34.7533V15.6748L116.698 34.8105Z" fill="white"/>
<path d="M132.001 34.9067L131.973 0.465332L142.757 17.6145L132.001 34.9067Z" fill="white"/>
<path d="M41.0638 33.7811C38.9265 32.5933 37.1725 30.7891 36.0172 28.5899C34.7902 26.189 34.1763 23.5064 34.2332 20.7941L34.1499 14.2739L34.2783 0.46875L17.9027 0.533068C17.5557 0.511631 17.2086 0.493762 16.8615 0.493762C16.3929 0.493762 15.9382 0.511631 15.4731 0.543786H15.3378C11.0894 0.854615 7.54566 2.49807 4.72385 5.37057C1.57461 8.57413 0 12.6602 0 17.6287C0 17.6573 0 17.6823 0 17.7073C0 17.7323 0 17.7573 0 17.7823C0 22.7484 1.57461 26.8357 4.72385 30.044C7.87192 33.2595 11.1588 35.4639 16.084 35.4639C17.8854 35.4639 19.3605 35.5103 20.9258 35.0816C22.2205 34.7243 23.7268 34.367 24.8583 33.7346L26.3473 35.1888L43.6253 34.8887C42.7252 34.6095 41.8552 34.236 41.0291 33.774M25.9447 17.9538C25.9461 18.7071 25.8834 19.459 25.7573 20.2011L24.5147 18.9435H18.1978V25.3494L20.1276 27.268C19.1251 27.5868 18.0807 27.7434 17.0315 27.7324C14.2826 27.7324 12.0936 26.8249 10.4647 25.01C8.83566 23.195 8.03621 20.8454 8.06629 17.961C8.06629 17.9359 8.06629 17.9074 8.06629 17.8824C8.06629 17.8573 8.06629 17.8288 8.06629 17.8037C8.06629 14.9193 8.86574 12.5697 10.4647 10.7547C12.0636 8.93975 14.2433 8.03227 17.0038 8.03227C19.7527 8.03227 21.9255 8.93975 23.5221 10.7547C25.1534 12.5697 25.969 14.9193 25.969 17.8037C25.969 17.8288 25.969 17.8538 25.969 17.8824C25.969 17.9109 25.969 17.9359 25.969 17.961" fill="white"/>
</svg>
