<svg width="96" height="96" viewBox="0 0 96 96" fill="none" xmlns="http://www.w3.org/2000/svg">
<path d="M89.9325 1.5H36.0675C35.4677 1.5 34.8737 1.61814 34.3196 1.84768C33.7654 2.07722 33.2619 2.41366 32.8378 2.83779C32.4137 3.26192 32.0772 3.76544 31.8477 4.31959C31.6181 4.87375 31.5 5.46769 31.5 6.0675V59.25C31.5 59.6478 31.658 60.0294 31.9393 60.3107C32.2206 60.592 32.6022 60.75 33 60.75C33.3978 60.75 33.7794 60.592 34.0607 60.3107C34.342 60.0294 34.5 59.6478 34.5 59.25V12H91.5V81H34.5V74.25C34.5 73.8522 34.342 73.4706 34.0607 73.1893C33.7794 72.908 33.3978 72.75 33 72.75C32.6022 72.75 32.2206 72.908 31.9393 73.1893C31.658 73.4706 31.5 73.8522 31.5 74.25V89.1825C31.502 90.5922 32.0629 91.9436 33.0597 92.9403C34.0564 93.9371 35.4078 94.498 36.8175 94.5H88.4325C90.0411 94.498 91.5832 93.8581 92.7207 92.7207C93.8581 91.5832 94.498 90.0411 94.5 88.4325V6.0675C94.5 5.46769 94.3819 4.87375 94.1523 4.31959C93.9228 3.76544 93.5863 3.26192 93.1622 2.83779C92.7381 2.41366 92.2346 2.07722 91.6804 1.84768C91.1263 1.61814 90.5323 1.5 89.9325 1.5ZM34.5 9V6.0675C34.502 5.65238 34.6678 5.25483 34.9613 4.96129C35.2548 4.66775 35.6524 4.50197 36.0675 4.5H89.9325C90.3476 4.50197 90.7452 4.66775 91.0387 4.96129C91.3322 5.25483 91.498 5.65238 91.5 6.0675V9H34.5ZM88.4325 91.5H36.8175C36.2035 91.498 35.6152 91.2532 35.181 90.819C34.7468 90.3848 34.502 89.7965 34.5 89.1825V84H91.5V88.4325C91.498 89.2454 91.1742 90.0245 90.5994 90.5994C90.0245 91.1742 89.2454 91.498 88.4325 91.5Z" fill="#002D72"/>
<path d="M68.25 86.25H57.75C57.3522 86.25 56.9706 86.408 56.6893 86.6893C56.408 86.9706 56.25 87.3522 56.25 87.75C56.25 88.1478 56.408 88.5294 56.6893 88.8107C56.9706 89.092 57.3522 89.25 57.75 89.25H68.25C68.6478 89.25 69.0294 89.092 69.3107 88.8107C69.592 88.5294 69.75 88.1478 69.75 87.75C69.75 87.3522 69.592 86.9706 69.3107 86.6893C69.0294 86.408 68.6478 86.25 68.25 86.25Z" fill="#002D72"/>
<path d="M69.75 60H56.25C54.6587 60 53.1326 60.6321 52.0074 61.7574C50.8821 62.8826 50.25 64.4087 50.25 66V72C50.25 73.5913 50.8821 75.1174 52.0074 76.2426C53.1326 77.3679 54.6587 78 56.25 78H69.75C71.3413 78 72.8674 77.3679 73.9926 76.2426C75.1179 75.1174 75.75 73.5913 75.75 72V66C75.75 64.4087 75.1179 62.8826 73.9926 61.7574C72.8674 60.6321 71.3413 60 69.75 60ZM72.75 72C72.75 72.7956 72.4339 73.5587 71.8713 74.1213C71.3087 74.6839 70.5456 75 69.75 75H56.25C55.4544 75 54.6913 74.6839 54.1287 74.1213C53.5661 73.5587 53.25 72.7956 53.25 72V66C53.25 65.2044 53.5661 64.4413 54.1287 63.8787C54.6913 63.3161 55.4544 63 56.25 63H69.75C70.5456 63 71.3087 63.3161 71.8713 63.8787C72.4339 64.4413 72.75 65.2044 72.75 66V72Z" fill="#002D72"/>
<path d="M63.3371 65.205C63.2327 65.0376 63.0963 64.8923 62.9358 64.7776C62.7753 64.6628 62.5937 64.5808 62.4015 64.5363C62.2093 64.4917 62.0102 64.4854 61.8155 64.5178C61.6209 64.5502 61.4345 64.6206 61.2671 64.725C61.0997 64.8294 60.9544 64.9657 60.8397 65.1263C60.725 65.2868 60.643 65.4684 60.5984 65.6606C60.5538 65.8528 60.5475 66.0519 60.5799 66.2465C60.6123 66.4412 60.6827 66.6275 60.7871 66.795L62.1671 69L60.7871 71.205C60.6824 71.3723 60.6117 71.5587 60.5791 71.7534C60.5466 71.9481 60.5528 72.1473 60.5974 72.3396C60.642 72.5319 60.7241 72.7136 60.839 72.8741C60.9539 73.0346 61.0994 73.1708 61.2671 73.275C61.5066 73.4211 61.7815 73.4989 62.0621 73.5C62.317 73.5005 62.5679 73.436 62.7909 73.3127C63.014 73.1893 63.202 73.0112 63.3371 72.795L65.2121 69.795C65.3611 69.5566 65.4401 69.2811 65.4401 69C65.4401 68.7189 65.3611 68.4434 65.2121 68.205L63.3371 65.205Z" fill="#002D72"/>
<path d="M49.5 66.75C49.5 65.5566 49.0259 64.412 48.182 63.5681C47.3381 62.7241 46.1935 62.25 45 62.25H20.3925L25.0125 56.55C25.4153 56.1519 25.7337 55.6766 25.9487 55.1526C26.1637 54.6286 26.271 54.0667 26.264 53.5004C26.257 52.934 26.1359 52.3749 25.908 51.8564C25.6801 51.3379 25.35 50.8706 24.9375 50.4825C24.0938 49.6981 22.9845 49.2621 21.8325 49.2621C20.6805 49.2621 19.5712 49.6981 18.7275 50.4825L4.155 63.87C2.57886 65.3084 1.62627 67.305 1.5 69.435V78.435C1.54713 80.1538 2.27389 81.7838 3.52095 82.9676C4.768 84.1514 6.43358 84.7924 8.1525 84.75H23.25C24.0323 84.751 24.7874 84.4628 25.3702 83.9409C25.953 83.419 26.3224 82.7002 26.4075 81.9225L27.5925 71.25H45C46.1935 71.25 47.3381 70.7759 48.182 69.932C49.0259 69.0881 49.5 67.9435 49.5 66.75ZM26.25 68.25C25.8792 68.2478 25.5207 68.383 25.2437 68.6295C24.9667 68.876 24.7908 69.2165 24.75 69.585L23.415 81.585C23.4132 81.6282 23.3952 81.6691 23.3646 81.6997C23.3341 81.7302 23.2932 81.7482 23.25 81.75H8.1525C7.23028 81.7929 6.32855 81.4692 5.64421 80.8495C4.95988 80.2298 4.54853 79.3645 4.5 78.4425V69.4425C4.61563 68.1452 5.22185 66.9408 6.195 66.075L20.775 52.6575C21.061 52.3967 21.4341 52.252 21.8212 52.252C22.2084 52.252 22.5815 52.3967 22.8675 52.6575C22.9929 52.7708 23.0931 52.909 23.1617 53.0634C23.2304 53.2178 23.2658 53.3848 23.2658 53.5538C23.2658 53.7227 23.2304 53.8898 23.1617 54.0442C23.0931 54.1986 22.9929 54.3368 22.8675 54.45C22.8211 54.4939 22.7785 54.5416 22.74 54.5925L16.0875 62.805C15.9091 63.025 15.7966 63.2909 15.763 63.5722C15.7294 63.8534 15.7761 64.1384 15.8977 64.3941C16.0193 64.6499 16.2109 64.866 16.4502 65.0175C16.6895 65.169 16.9668 65.2496 17.25 65.25H45C45.3978 65.25 45.7794 65.4081 46.0607 65.6894C46.342 65.9707 46.5 66.3522 46.5 66.75C46.5 67.1479 46.342 67.5294 46.0607 67.8107C45.7794 68.092 45.3978 68.25 45 68.25H26.25Z" fill="#002D72"/>
<path d="M61.1925 33H69C69.3978 33 69.7794 32.842 70.0607 32.5607C70.342 32.2794 70.5 31.8978 70.5 31.5C70.5 31.1022 70.342 30.7206 70.0607 30.4393C69.7794 30.158 69.3978 30 69 30H64.5V28.5C64.5 28.1022 64.342 27.7206 64.0607 27.4393C63.7794 27.158 63.3978 27 63 27C62.6022 27 62.2206 27.158 61.9393 27.4393C61.658 27.7206 61.5 28.1022 61.5 28.5V30H61.1925C58.1925 30 55.68 32.19 55.68 34.875C55.68 37.56 58.155 39.75 61.1925 39.75H64.9425C66.345 39.75 67.5 40.605 67.5 41.625C67.5 42.645 66.345 43.5 64.98 43.5H57C56.6022 43.5 56.2206 43.658 55.9393 43.9393C55.658 44.2206 55.5 44.6022 55.5 45C55.5 45.3978 55.658 45.7794 55.9393 46.0607C56.2206 46.342 56.6022 46.5 57 46.5H61.5V48C61.5 48.3978 61.658 48.7794 61.9393 49.0607C62.2206 49.342 62.6022 49.5 63 49.5C63.3978 49.5 63.7794 49.342 64.0607 49.0607C64.342 48.7794 64.5 48.3978 64.5 48V46.5H64.98C67.98 46.5 70.4925 44.31 70.4925 41.625C70.4925 38.94 68.0175 36.75 64.98 36.75H61.23C59.8725 36.75 58.7175 35.895 58.7175 34.875C58.7175 33.855 59.835 33 61.1925 33Z" fill="#002D72"/>
<path d="M63 21C59.5883 21 56.2532 22.0117 53.4164 23.9071C50.5797 25.8026 48.3687 28.4967 47.0631 31.6487C45.7575 34.8007 45.4159 38.2691 46.0815 41.6153C46.7471 44.9615 48.39 48.0351 50.8024 50.4476C53.2149 52.86 56.2885 54.5029 59.6347 55.1685C62.9809 55.8341 66.4493 55.4925 69.6013 54.1869C72.7533 52.8813 75.4474 50.6703 77.3429 47.8336C79.2383 44.9968 80.25 41.6617 80.25 38.25C80.25 35.9847 79.8038 33.7416 78.9369 31.6487C78.07 29.5558 76.7994 27.6542 75.1976 26.0524C73.5958 24.4506 71.6942 23.18 69.6013 22.3131C67.5084 21.4462 65.2653 21 63 21ZM63 52.5C60.1816 52.5 57.4265 51.6642 55.0831 50.0984C52.7397 48.5326 50.9133 46.3071 49.8347 43.7032C48.7562 41.0994 48.474 38.2342 49.0238 35.47C49.5737 32.7057 50.9308 30.1666 52.9237 28.1737C54.9166 26.1808 57.4557 24.8236 60.22 24.2738C62.9842 23.724 65.8494 24.0062 68.4532 25.0847C71.0571 26.1633 73.2826 27.9897 74.8484 30.3331C76.4143 32.6765 77.25 35.4316 77.25 38.25C77.25 42.0293 75.7487 45.6539 73.0763 48.3263C70.4039 50.9987 66.7793 52.5 63 52.5Z" fill="#002D72"/>
</svg>
