<?xml version="1.0" encoding="UTF-8"?>
<svg xmlns="http://www.w3.org/2000/svg" version="1.1" viewBox="0 0 1419.7 94.8">
  <defs>
    <style>
      .cls-1 {
        fill: #fff;
      }

      .cls-2 {
        fill: #ee9f2d;
      }

      .cls-3 {
        fill: #d9222a;
      }

      .cls-4 {
        fill: #4e7eff;
      }

      .cls-5 {
        fill: #ffbc00;
      }

      .cls-6 {
        fill: #36bbea;
      }
    </style>
  </defs>
  <!-- Generator: Adobe Illustrator 28.7.1, SVG Export Plug-In . SVG Version: 1.2.0 Build 142)  -->
  <g>
    <g id="Capa_1">
      <g>
        <path class="cls-6" d="M784.6,4.9h-24.3c-1.4,0-2.9,1.4-3.6,2.9l-10,62.9c0,1.4.7,2.1,2.1,2.1h12.9c1.4,0,2.1-.7,2.1-2.1l2.9-17.9c0-1.4,1.4-2.9,3.6-2.9h7.9c16.4,0,25.7-7.9,27.9-23.6,1.4-6.4,0-12.1-2.9-15.7-4.3-3.6-10.8-5.7-18.6-5.7M787.4,28.5c-1.4,8.5-7.8,8.5-14.3,8.5h-4.3l2.9-16.4c0-.7.7-1.4,2.1-1.4h1.4c4.3,0,8.6,0,10.7,2.9,1.5.6,1.5,2.8,1.5,6.4"/>
        <path class="cls-1" d="M609.5,4.9h-24.3c-1.4,0-2.9,1.4-3.6,2.9l-10,62.9c0,1.4.7,2.1,2.1,2.1h11.4c1.4,0,2.9-1.4,3.6-2.9l2.9-17.1c0-1.4,1.4-2.9,3.6-2.9h7.9c16.4,0,25.7-7.9,27.9-23.6,1.4-6.4,0-12.1-2.9-15.7-4.3-3.6-10-5.7-18.6-5.7M612.4,28.5c-1.4,8.6-7.9,8.6-14.3,8.6h-3.6l2.9-16.4c0-.7.7-1.4,2.1-1.4h1.4c4.3,0,8.6,0,10.7,2.9.8.5,1.5,2.7.8,6.3"/>
        <path class="cls-1" d="M683.1,27.8h-11.4c-.7,0-2.1.7-2.1,1.4l-.7,3.6-.7-1.4c-2.9-3.6-7.9-5-13.6-5-12.9,0-24.3,10-26.4,23.6-1.4,7.1.7,13.6,4.3,17.9s8.6,5.7,15,5.7c10.7,0,16.4-6.4,16.4-6.4l-.7,3.6c0,1.4.7,2.1,2.1,2.1h10.7c1.4,0,2.9-1.4,3.6-2.9l6.4-40c-.7-.8-2.2-2.2-2.9-2.2M666.7,50.6c-1.5,6.4-6.5,11.4-13.6,11.4s-6.4-1.4-7.9-2.9c-1.4-2.1-2.1-5-2.1-8.6.7-6.4,6.4-11.4,12.9-11.4s5.7,1.4,7.9,2.9c2.1,2.2,2.8,5.8,2.8,8.6"/>
        <path class="cls-6" d="M857.5,27.8h-11.5c-.7,0-2.1.7-2.1,1.4l-.7,3.6-.7-1.4c-2.9-3.6-7.9-5-13.6-5-12.9,0-24.3,10-26.4,23.6-1.4,7.1.7,13.6,4.3,17.9s8.6,5.7,15,5.7c10.7,0,16.4-6.4,16.4-6.4l-.7,3.6c0,1.4.7,2.1,2.1,2.1h10.7c1.4,0,2.9-1.4,3.6-2.9l6.4-40c-.7-.8-1.4-2.2-2.8-2.2M841,50.6c-1.4,6.4-6.4,11.4-13.5,11.4s-6.4-1.4-7.9-2.9c-1.4-2.1-2.1-5-2.1-8.6.7-6.4,6.4-11.4,12.9-11.4s5.7,1.4,7.9,2.9c2.7,2.2,3.4,5.8,2.7,8.6"/>
        <path class="cls-1" d="M745.3,27.8h-12.1c-1.4,0-2.1.7-2.9,1.4l-15.7,24.3-7.1-22.9c-.7-1.4-1.4-2.1-3.6-2.1h-11.4c-1.4,0-2.1,1.4-2.1,2.9l12.9,37.9-12.3,17c-.7,1.4,0,3.6,1.4,3.6h11.4c1.4,0,2.1-.7,2.9-1.4l39.3-56.5c2.1-2.1.7-4.2-.7-4.2"/>
        <path class="cls-6" d="M871,7l-10,64.3c0,1.4.7,2.1,2.1,2.1h10c1.4,0,2.9-1.4,3.6-2.9l10-62.9c0-1.4-.7-2.1-2.1-2.1h-11.4c-.7-.6-1.4.1-2.2,1.5"/>
      </g>
      <g>
        <path class="cls-1" d="M327.4,88.1l14.3-80.6h22.4l-13.9,80.6h-22.8Z"/>
        <path class="cls-1" d="M431.3,8.5c-4.5-1.8-11.6-3.6-20.6-3.6-22.4,0-38.5,11.2-38.5,27.3s11.2,18.3,20.1,22.4c9,4,11.6,6.7,11.6,10.3,0,5.4-7.2,8.1-13.4,8.1-9,0-13.9-1.3-21.5-4.5l-3.1-1.3-3.1,18.3c5.4,2.2,15.2,4.5,25.5,4.5,23.7,0,39.4-11.2,39.4-28.2s-5.8-16.6-19.2-22.4c-8.1-4-13-6.3-13-10.3s4-7.2,13-7.2,13,1.3,17,3.1l2.2.9,3.6-17.4Z"/>
        <path class="cls-1" d="M469.8,7.6c-5.4,0-9.4.4-11.6,5.8l-33.6,74.7h24.2l4.5-13.4h28.6l2.7,13.4h21.4l-18.8-80.5h-17.4ZM459.5,61.3c1.3-4,9-23.7,9-23.7,0,0,1.8-4.9,3.1-8.1l1.3,7.6s4.5,20.1,5.4,24.6h-18.8v-.4Z"/>
        <path class="cls-1" d="M286.3,64l-2.3-11.7c-4-13.4-17-28.2-31.3-35.4l20.1,71.6h24.2l36.3-80.5h-24.2l-22.8,56Z"/>
        <path class="cls-5" d="M224.1,7.6l4,.9c28.6,6.7,48.3,23.7,55.9,43.9l-8.1-38c-1.3-5.4-5.4-6.7-10.3-6.7h-41.5Z"/>
      </g>
      <g>
        <path class="cls-3" d="M1110.8,47.4c0,26.2-21.2,47.4-47.4,47.4s-47.4-21.2-47.4-47.4S1037.2,0,1063.4,0s47.4,21.2,47.4,47.4"/>
        <path class="cls-6" d="M1026.8,77.5c-1.3-1.6-2.5-3.3-3.6-5h16.8c1-1.6,1.9-3.3,2.7-5h-22.3c-.8-1.6-1.4-3.3-2-5h26.3c1.6-4.7,2.4-9.8,2.4-15s-.4-6.8-1.1-10h-29c.4-1.7.8-3.4,1.4-5h26.3c-.6-1.7-1.2-3.4-2-5h-22.2c.8-1.7,1.7-3.4,2.7-5h16.8c-1.1-1.7-2.3-3.4-3.6-5h-9.6c1.5-1.8,3.1-3.5,4.8-5-8.4-7.9-19.6-12.5-31.8-12.5-26.2,0-47.4,21.2-47.4,47.4s21.2,47.4,47.4,47.4,23.4-4.6,31.8-12.3c1.7-1.6,3.3-3.2,4.8-5h-9.6"/>
        <path class="cls-1" d="M1094.5,57.7c0-.8.7-1.5,1.5-1.5s1.5.7,1.5,1.5-.7,1.5-1.5,1.6c-.8,0-1.5-.7-1.5-1.6h0ZM1096,58.8c.6,0,1.2-.5,1.2-1.2s-.5-1.2-1.2-1.2-1.2.5-1.2,1.2.6,1.2,1.2,1.2ZM1095.8,58.3h-.3v-1.3h.6c0,0,.2,0,.3,0,0,0,.2.2.2.3,0,.2,0,.3-.2.3l.2.6h-.3l-.2-.5h-.2v.5h0ZM1095.8,57.6h.4c0,0,0,0,0-.2s0,0,0,0h-.4v.3ZM1032.4,58.7c-2,.5-4,.8-6.1.8-6.6,0-10-3-10-8.8s4.4-11.7,10.3-11.7,8,2.8,8,7.1-.2,2.8-.7,4.8h-11.7c-.4,2.8,1.6,4,5.1,4s4-.4,6.1-1.2l-1,5ZM1029.2,47.1c0-.4.7-3.4-2.7-3.5-1.9,0-3.2,1.2-3.8,3.5h6.5ZM1036.4,45.8c0,2.5,1.4,4.2,4.6,5.5,2.4,1,2.8,1.3,2.8,2.2s-1.1,1.8-3.5,1.8-3.4-.2-5.4-.8l-.9,4.5c1.7.4,4.1.5,6.2.6,6.3,0,9.3-2.1,9.3-6.6s-1.2-4.3-4.2-5.5c-2.5-1-2.8-1.2-2.8-2.1s1-1.6,2.9-1.6,2.8,0,4.3.3l.9-4.6c-1.6-.2-3.9-.4-5.3-.4-6.6,0-8.9,3-8.9,6.7M1013.1,59.2h-4.9v-2.1c-1.4,1.6-3.4,2.4-6.1,2.4s-5.4-2.2-5.4-5.4c0-4.8,3.8-7.6,10.4-7.6s1.5,0,2.4,0c.2-.6.2-.9.2-1.3,0-1.3-1-1.8-3.8-1.8s-4.6.4-6.3.9l.8-4.4c3-.8,4.9-1,7.1-1,5.1,0,7.8,2,7.8,5.8s-.3,3-.5,3.9c-.2,1.3-1.6,8.7-1.7,10.5h0ZM1008.7,50.4c-.6,0-.9,0-1.3,0-3.4,0-5.1,1-5.1,3s.8,2,2.1,2c2.5,0,4.2-2,4.3-4.9ZM1060,58.9c-1.6.4-2.9.6-4.2.6-3,0-4.7-1.5-4.7-4.3,0-.8.6-4.2.8-5.2.2-1,2.8-15.2,2.8-15.2h5.9l-.9,4.7h3l-.8,4.8h-3s-1.7,8.3-1.7,9c0,1,.6,1.4,2,1.4s1.2,0,1.6-.2l-.8,4.4ZM1089.2,47.7c0,4.4-1.8,7.1-4.7,7.1s-3.4-1.7-3.4-4.4,1.9-6.6,4.8-6.6,3.3,1.9,3.3,3.9h0ZM1095.5,47.8c0-4.9-3.2-8.7-9.3-8.7s-11.5,4.7-11.5,11.5,2.7,8.9,9.3,8.9,11.5-3.5,11.5-11.7h0ZM1065.2,39.5c-.7,6.1-2.1,12.2-3.1,18.3l-.2,1.3h5.9c2.1-11.8,2.9-15.1,7.3-13.9l2.2-5.6c-3.1-1.1-5.1.5-6.9,2.8.2-1,.5-2.1.4-3h-5.6ZM993.9,59.2h-5.9l3.5-18.5-8.1,18.5h-5.4l-1-18.4-3.5,18.4h-5.4l4.6-24h9.2l.5,14.9,6.5-14.9h9.6l-4.6,24Z"/>
      </g>
      <g>
        <path class="cls-3" d="M94.8,47.4c0,26.2-21.2,47.4-47.4,47.4S0,73.6,0,47.4,21.2,0,47.4,0s47.4,21.2,47.4,47.4"/>
        <path class="cls-2" d="M111,0c-12.2,0-23.4,4.6-31.8,12.3-1.7,1.6-3.3,3.2-4.8,5h9.6c1.3,1.6,2.5,3.3,3.6,5h-16.8c-1,1.6-1.9,3.3-2.7,5h22.3c.8,1.6,1.4,3.3,2,5h-26.3c-.6,1.6-1,3.3-1.4,5h29c.7,3.3,1.1,6.7,1.1,10,0,5.3-.9,10.3-2.4,15.1h-26.3c.6,1.7,1.2,3.4,2,5h22.3c-.8,1.7-1.7,3.4-2.7,5h-16.9c1.1,1.7,2.3,3.4,3.6,5h9.6c-1.5,1.8-3.1,3.5-4.8,5,8.4,7.6,19.6,12.3,31.8,12.3,26.2,0,47.4-21.2,47.4-47.4S137.2,0,111,0"/>
        <path class="cls-1" d="M25.1,59.9h-5.1l2.9-18.5-6.6,18.5h-3.5l-.4-18.4-3.1,18.4h-4.8l4-24h7.4l.2,14.9,5-14.9h8l-4,24Z"/>
        <path class="cls-1" d="M37.8,51.2c-.5,0-.8,0-1.1,0-2.9,0-4.4,1-4.4,3s.7,2,1.8,2c2.1,0,3.6-2,3.7-4.9h0ZM41.6,59.9h-4.3v-2c-1.2,1.6-2.9,2.4-5.3,2.4s-4.7-2.2-4.7-5.3c0-4.8,3.3-7.5,9-7.5s1.3,0,2.1.2c.2-.6.2-.9.2-1.3,0-1.3-.9-1.8-3.3-1.8s-4.6.6-5.4.9c.1-.3.7-4.4.7-4.4,2.6-.8,4.3-1,6.2-1,4.4,0,6.8,2,6.8,5.7s-.2,2.2-.4,3.9c-.6,2.6-1.5,8.7-1.6,10.2h0ZM110.6,36.5l-.8,5.2c-1.8-.9-3.2-1.3-4.6-1.3-3.8,0-6.5,3.7-6.5,9s1.8,5.9,4.8,5.9,2.7-.4,4.4-1.2l-.9,5.5c-1.9.5-3.1.7-4.5.7-5.5,0-9-4-9-10.4s4.8-14.6,11.6-14.6c2.1-.1,4.7.9,5.5,1.2M118.9,51.2c-.5,0-.8,0-1.1,0-2.9,0-4.4,1-4.4,3s.7,2,1.8,2c2.1,0,3.6-2,3.7-4.9h0ZM122.6,59.9h-4.3v-2c-1.2,1.6-2.9,2.4-5.3,2.4s-4.7-2.2-4.7-5.3c0-4.8,3.3-7.5,9-7.5s1.3,0,2.1.2c.2-.6.2-.9.2-1.3,0-1.3-.9-1.8-3.3-1.8s-4.6.6-5.4.9c0-.3.7-4.4.7-4.4,2.6-.8,4.3-1,6.2-1,4.4,0,6.8,2,6.8,5.7s-.2,2.2-.4,3.9c-.5,2.6-1.4,8.7-1.6,10.2h0ZM64.4,59.6c-1.4.4-2.5.6-3.7.6-2.6,0-4.1-1.5-4.1-4.3s.4-3.1.7-5.2c.3-1.8,2.2-13.3,2.2-13.3h5.1l-.6,3h2.6l-.6,4.6h-2.6c-.6,3.7-1.4,8.4-1.5,9,0,1,.5,1.4,1.8,1.4s1,0,1.4-.2l-.7,4.4ZM80.1,59.4c-1.8.5-3.5.8-5.2.8-5.7,0-8.7-3-8.7-8.7s3.8-11.6,9-11.6,6.9,2.8,6.9,7.1-.2,2.8-.6,4.8h-10.3c-.3,2.8,1.5,4,4.4,4s3.5-.4,5.3-1.2l-.8,4.8ZM77.2,47.8c0-.4.5-3.5-2.4-3.5s-2.8,1.2-3.3,3.5h5.7ZM44.6,46.5c0,2.5,1.2,4.2,3.9,5.5,2.1,1,2.4,1.3,2.4,2.2s-.9,1.8-3,1.8-3-.2-4.6-.8c0,0-.7,4.3-.7,4.5,1.2.3,2.2.5,5.4.6,5.4,0,7.9-2.1,7.9-6.5s-1-4.3-3.6-5.4c-2.2-1-2.4-1.2-2.4-2.1s.9-1.6,2.5-1.6,2.4,0,3.7.3l.7-4.5c-1.3-.2-3.4-.4-4.5-.4-5.7-.2-7.7,2.8-7.7,6.4M149.9,59.9h-4.9l.2-1.8c-1.4,1.5-2.9,2.2-4.7,2.2-3.7,0-6.2-3.2-6.2-8.1s3.8-12,8.4-12,3.5.8,4.9,2.7l1.1-6.9h5.1l-3.9,23.9ZM142.3,55.4c2.4,0,4.1-2.7,4.1-6.6s-1-3.8-2.7-3.8-4,2.7-4,6.6c-.1,2.5.8,3.8,2.6,3.8ZM127.3,40.3c-.6,6.1-1.8,12.2-2.7,18.2l-.2,1.3h5.1c1.8-12,2.3-14.3,5.2-14,.5-2.4,1.3-4.6,2-5.7-2.2-.4-3.4.8-4.9,3.1.1-1,.4-2,.3-3h-4.8ZM84.9,40.3c-.6,6.1-1.8,12.2-2.7,18.2l-.2,1.4h5.1c1.8-12,2.3-14.3,5.2-14,.5-2.4,1.3-4.6,2-5.7-2.2-.4-3.4.8-4.9,3.1,0-1,.3-2,.3-3h-4.8ZM152.1,58.3c0-.8.7-1.5,1.5-1.5h0c.8,0,1.5.7,1.5,1.5h0c0,.8-.7,1.5-1.5,1.5-.8.1-1.5-.6-1.5-1.5h0ZM153.7,59.5c.6,0,1.2-.5,1.2-1.2h0c0-.6-.5-1.2-1.2-1.2h0c-.6,0-1.2.5-1.2,1.2s.5,1.2,1.2,1.2h0ZM153.4,59h-.3v-1.3h.6c.1,0,.2,0,.3,0s.2.2.2.3c0,.2-.1.3-.2.3l.2.6h-.3l-.2-.5h-.2v.5ZM153.4,58.3h.4c.1,0,.1,0,.1-.2s0,0-.1,0h-.4v.3Z"/>
      </g>
      <g>
        <circle class="cls-4" cx="1407.6" cy="12.5" r="12"/>
        <path class="cls-4" d="M1301.6.5c-5.3,0-9.4,4.1-9.4,9.4v18.8c-5-2.6-10.3-4.1-16.2-4.1-19.4,0-35,15.6-35,35s15.6,35,35,35,35-15.6,35-35h0V9.9c-.3-5-4.4-9.4-9.4-9.4ZM1276,75.7c-9.1,0-16.2-7.3-16.2-16.2s7.3-16.2,16.2-16.2,16.2,7.3,16.2,16.2-7.3,16.2-16.2,16.2Z"/>
        <path class="cls-4" d="M1387.1,9.9c0-5.3-4.1-9.4-9.4-9.4s-9.4,4.1-9.4,9.4v18.8c-5-2.6-10.3-4.1-16.2-4.1-19.4,0-35,15.6-35,35s15.6,35,35,35,35-15.6,35-35h0V9.9ZM1352.1,75.7c-9.1,0-16.2-7.3-16.2-16.2s7.3-16.2,16.2-16.2,16.2,7.3,16.2,16.2-7.3,16.2-16.2,16.2Z"/>
        <path class="cls-4" d="M1407.6,94.5c-5.3,0-9.4-4.1-9.4-9.4v-44.6c0-5.3,4.1-9.4,9.4-9.4s9.4,4.1,9.4,9.4v44.6c0,5-4.1,9.4-9.4,9.4Z"/>
        <path class="cls-4" d="M1203.2,8.7c-17.3,0-31.4,14.1-31.4,31.4v44.9c0,5.3,4.1,9.4,9.4,9.4s9.4-4.1,9.4-9.4v-16.5h25.6v16.5c0,5.3,4.1,9.4,9.4,9.4s9.4-4.1,9.4-9.4v-44.9c-.3-17.3-14.4-31.4-31.7-31.4ZM1190.2,50.1v-10c0-7,5.9-12.9,12.9-12.9s12.9,5.9,12.9,12.9v10h-25.8Z"/>
      </g>
    </g>
  </g>
</svg>