<?xml version="1.0" encoding="utf-8"?>
<!-- Generator: Adobe Illustrator 27.0.0, SVG Export Plug-In . SVG Version: 6.00 Build 0)  -->
<svg version="1.1" id="Capa_1" xmlns="http://www.w3.org/2000/svg" xmlns:xlink="http://www.w3.org/1999/xlink" x="0px" y="0px"
	 viewBox="0 0 1110.8 94.8" style="enable-background:new 0 0 1110.8 94.8;" xml:space="preserve">
<style type="text/css">
	.st0{fill:#36BBEA;}
	.st1{fill:#FFFFFF;}
	.st2{fill:#FFBC00;}
	.st3{fill:#D9222A;}
	.st4{fill:#EE9F2D;}
</style>
<g>
	<path class="st0" d="M784.6,4.9h-24.3c-1.4,0-2.9,1.4-3.6,2.9l-10,62.9c0,1.4,0.7,2.1,2.1,2.1h12.9c1.4,0,2.1-0.7,2.1-2.1l2.9-17.9
		c0-1.4,1.4-2.9,3.6-2.9h7.9c16.4,0,25.7-7.9,27.9-23.6c1.4-6.4,0-12.1-2.9-15.7C798.9,7,792.4,4.9,784.6,4.9 M787.4,28.5
		C786,37,779.6,37,773.1,37h-4.3l2.9-16.4c0-0.7,0.7-1.4,2.1-1.4h1.4c4.3,0,8.6,0,10.7,2.9C787.4,22.7,787.4,24.9,787.4,28.5"/>
	<path class="st1" d="M609.5,4.9h-24.3c-1.4,0-2.9,1.4-3.6,2.9l-10,62.9c0,1.4,0.7,2.1,2.1,2.1h11.4c1.4,0,2.9-1.4,3.6-2.9l2.9-17.1
		c0-1.4,1.4-2.9,3.6-2.9h7.9c16.4,0,25.7-7.9,27.9-23.6c1.4-6.4,0-12.1-2.9-15.7C623.8,7,618.1,4.9,609.5,4.9 M612.4,28.5
		c-1.4,8.6-7.9,8.6-14.3,8.6h-3.6l2.9-16.4c0-0.7,0.7-1.4,2.1-1.4h1.4c4.3,0,8.6,0,10.7,2.9C612.4,22.7,613.1,24.9,612.4,28.5"/>
	<path class="st1" d="M683.1,27.8h-11.4c-0.7,0-2.1,0.7-2.1,1.4l-0.7,3.6l-0.7-1.4c-2.9-3.6-7.9-5-13.6-5c-12.9,0-24.3,10-26.4,23.6
		c-1.4,7.1,0.7,13.6,4.3,17.9c3.6,4.3,8.6,5.7,15,5.7c10.7,0,16.4-6.4,16.4-6.4l-0.7,3.6c0,1.4,0.7,2.1,2.1,2.1H676
		c1.4,0,2.9-1.4,3.6-2.9l6.4-40C685.3,29.2,683.8,27.8,683.1,27.8 M666.7,50.6C665.2,57,660.2,62,653.1,62c-3.6,0-6.4-1.4-7.9-2.9
		c-1.4-2.1-2.1-5-2.1-8.6c0.7-6.4,6.4-11.4,12.9-11.4c3.6,0,5.7,1.4,7.9,2.9C666,44.2,666.7,47.8,666.7,50.6"/>
	<path class="st0" d="M857.5,27.8H846c-0.7,0-2.1,0.7-2.1,1.4l-0.7,3.6l-0.7-1.4c-2.9-3.6-7.9-5-13.6-5c-12.9,0-24.3,10-26.4,23.6
		c-1.4,7.1,0.7,13.6,4.3,17.9c3.6,4.3,8.6,5.7,15,5.7c10.7,0,16.4-6.4,16.4-6.4l-0.7,3.6c0,1.4,0.7,2.1,2.1,2.1h10.7
		c1.4,0,2.9-1.4,3.6-2.9l6.4-40C859.6,29.2,858.9,27.8,857.5,27.8 M841,50.6C839.6,57,834.6,62,827.5,62c-3.6,0-6.4-1.4-7.9-2.9
		c-1.4-2.1-2.1-5-2.1-8.6c0.7-6.4,6.4-11.4,12.9-11.4c3.6,0,5.7,1.4,7.9,2.9C841,44.2,841.7,47.8,841,50.6"/>
	<path class="st1" d="M745.3,27.8h-12.1c-1.4,0-2.1,0.7-2.9,1.4l-15.7,24.3l-7.1-22.9c-0.7-1.4-1.4-2.1-3.6-2.1h-11.4
		c-1.4,0-2.1,1.4-2.1,2.9l12.9,37.9L691,86.3c-0.7,1.4,0,3.6,1.4,3.6h11.4c1.4,0,2.1-0.7,2.9-1.4L746,32
		C748.1,29.9,746.7,27.8,745.3,27.8"/>
	<path class="st0" d="M871,7l-10,64.3c0,1.4,0.7,2.1,2.1,2.1h10c1.4,0,2.9-1.4,3.6-2.9l10-62.9c0-1.4-0.7-2.1-2.1-2.1h-11.4
		C872.5,4.9,871.8,5.6,871,7"/>
</g>
<g>
	<path class="st1" d="M327.4,88.1l14.3-80.6h22.4l-13.9,80.6H327.4z M327.4,88.1"/>
	<path class="st1" d="M431.3,8.5c-4.5-1.8-11.6-3.6-20.6-3.6c-22.4,0-38.5,11.2-38.5,27.3c0,12.1,11.2,18.3,20.1,22.4
		c9,4,11.6,6.7,11.6,10.3c0,5.4-7.2,8.1-13.4,8.1c-9,0-13.9-1.3-21.5-4.5l-3.1-1.3l-3.1,18.3c5.4,2.2,15.2,4.5,25.5,4.5
		c23.7,0,39.4-11.2,39.4-28.2c0-9.4-5.8-16.6-19.2-22.4c-8.1-4-13-6.3-13-10.3c0-3.6,4-7.2,13-7.2c7.6,0,13,1.3,17,3.1l2.2,0.9
		L431.3,8.5z M431.3,8.5"/>
	<path class="st1" d="M469.8,7.6c-5.4,0-9.4,0.4-11.6,5.8l-33.6,74.7h24.2l4.5-13.4h28.6l2.7,13.4H506L487.2,7.6H469.8z M459.5,61.3
		c1.3-4,9-23.7,9-23.7s1.8-4.9,3.1-8.1l1.3,7.6c0,0,4.5,20.1,5.4,24.6h-18.8V61.3z M459.5,61.3"/>
	<path class="st1" d="M286.3,64L284,52.3c-4-13.4-17-28.2-31.3-35.4l20.1,71.6H297L333.3,8h-24.2L286.3,64z M286.3,64"/>
	<path class="st2" d="M224.1,7.6l4,0.9c28.6,6.7,48.3,23.7,55.9,43.9l-8.1-38c-1.3-5.4-5.4-6.7-10.3-6.7H224.1z M224.1,7.6"/>
</g>
<g>
	<path class="st3" d="M1110.8,47.4c0,26.2-21.2,47.4-47.4,47.4c-26.2,0-47.4-21.2-47.4-47.4c0-26.2,21.2-47.4,47.4-47.4
		C1089.6,0,1110.8,21.2,1110.8,47.4"/>
	<path class="st0" d="M1026.8,77.5c-1.3-1.6-2.5-3.3-3.6-5h16.8c1-1.6,1.9-3.3,2.7-5h-22.3c-0.8-1.6-1.4-3.3-2-5h26.3
		c1.6-4.7,2.4-9.8,2.4-15c0-3.4-0.4-6.8-1.1-10h-29c0.4-1.7,0.8-3.4,1.4-5h26.3c-0.6-1.7-1.2-3.4-2-5h-22.2c0.8-1.7,1.7-3.4,2.7-5
		h16.8c-1.1-1.7-2.3-3.4-3.6-5h-9.6c1.5-1.8,3.1-3.5,4.8-5C1023.2,4.6,1012,0,999.8,0c-26.2,0-47.4,21.2-47.4,47.4
		c0,26.2,21.2,47.4,47.4,47.4c12.2,0,23.4-4.6,31.8-12.3c1.7-1.6,3.3-3.2,4.8-5L1026.8,77.5"/>
	<path class="st1" d="M1094.5,57.7c0-0.8,0.7-1.5,1.5-1.5c0.8,0,1.5,0.7,1.5,1.5c0,0.8-0.7,1.5-1.5,1.6
		C1095.2,59.2,1094.5,58.6,1094.5,57.7C1094.5,57.7,1094.5,57.7,1094.5,57.7L1094.5,57.7z M1096,58.8c0.6,0,1.2-0.5,1.2-1.2
		c0-0.6-0.5-1.2-1.2-1.2c-0.6,0-1.2,0.5-1.2,1.2C1094.8,58.3,1095.4,58.8,1096,58.8z M1095.8,58.3h-0.3V57h0.6c0.1,0,0.2,0,0.3,0.1
		c0.1,0.1,0.2,0.2,0.2,0.3c0,0.2-0.1,0.3-0.2,0.3l0.2,0.6h-0.3l-0.2-0.5h-0.2L1095.8,58.3L1095.8,58.3z M1095.8,57.6h0.2
		c0.1,0,0.1,0,0.2,0c0.1,0,0.1-0.1,0.1-0.2c0-0.1,0-0.1-0.1-0.1c-0.1,0-0.1,0-0.2,0h-0.2V57.6z M1032.4,58.7c-2,0.5-4,0.8-6.1,0.8
		c-6.6,0-10-3-10-8.8c0-6.7,4.4-11.7,10.3-11.7c4.9,0,8,2.8,8,7.1c0,1.4-0.2,2.8-0.7,4.8h-11.7c-0.4,2.8,1.6,4,5.1,4
		c2.1,0,4-0.4,6.1-1.2L1032.4,58.7z M1029.2,47.1c0-0.4,0.7-3.4-2.7-3.5c-1.9,0-3.2,1.2-3.8,3.5H1029.2z M1036.4,45.8
		c0,2.5,1.4,4.2,4.6,5.5c2.4,1,2.8,1.3,2.8,2.2c0,1.2-1.1,1.8-3.5,1.8c-1.8,0-3.4-0.2-5.4-0.8l-0.9,4.5c1.7,0.4,4.1,0.5,6.2,0.6
		c6.3,0,9.3-2.1,9.3-6.6c0-2.7-1.2-4.3-4.2-5.5c-2.5-1-2.8-1.2-2.8-2.1c0-1.1,1-1.6,2.9-1.6c1.2,0,2.8,0.1,4.3,0.3l0.9-4.6
		c-1.6-0.2-3.9-0.4-5.3-0.4C1038.7,39.1,1036.4,42.1,1036.4,45.8 M1013.1,59.2h-4.9l0.1-2.1c-1.5,1.6-3.5,2.4-6.2,2.4
		c-3.2,0-5.4-2.2-5.4-5.4c0-4.8,3.8-7.6,10.4-7.6c0.7,0,1.5,0.1,2.4,0.1c0.2-0.6,0.2-0.9,0.2-1.3c0-1.3-1-1.8-3.8-1.8
		c-2.7,0-4.6,0.4-6.3,0.9l0.8-4.4c3-0.8,4.9-1,7.1-1c5.1,0,7.8,2,7.8,5.8c0,1-0.3,3-0.5,3.9C1014.6,50,1013.2,57.4,1013.1,59.2
		L1013.1,59.2z M1008.7,50.4c-0.6-0.1-0.9-0.1-1.3-0.1c-3.4,0-5.1,1-5.1,3c0,1.2,0.8,2,2.1,2C1006.9,55.3,1008.6,53.3,1008.7,50.4z
		 M1060,58.9c-1.6,0.4-2.9,0.6-4.2,0.6c-3,0-4.7-1.5-4.7-4.3c-0.1-0.8,0.6-4.2,0.8-5.2c0.2-1,2.8-15.2,2.8-15.2h5.9l-0.9,4.7h3
		l-0.8,4.8h-3c0,0-1.7,8.3-1.7,9c0,1,0.6,1.4,2,1.4c0.7,0,1.2-0.1,1.6-0.2L1060,58.9z M1089.2,47.7c0,4.4-1.8,7.1-4.7,7.1
		c-2.1,0-3.4-1.7-3.4-4.4c0-3.1,1.9-6.6,4.8-6.6C1088.4,43.8,1089.2,45.7,1089.2,47.7L1089.2,47.7z M1095.5,47.8
		c0-4.9-3.2-8.7-9.3-8.7c-7,0-11.5,4.7-11.5,11.5c0,4.9,2.7,8.9,9.3,8.9C1090.7,59.5,1095.5,56,1095.5,47.8L1095.5,47.8z
		 M1065.2,39.5c-0.7,6.1-2.1,12.2-3.1,18.3l-0.2,1.3h5.9c2.1-11.8,2.9-15.1,7.3-13.9l2.2-5.6c-3.1-1.1-5.1,0.5-6.9,2.8
		c0.2-1,0.5-2.1,0.4-3L1065.2,39.5z M993.9,59.2H988l3.5-18.5l-8.1,18.5H978l-1-18.4l-3.5,18.4h-5.4l4.6-24h9.2l0.5,14.9l6.5-14.9
		h9.6L993.9,59.2z"/>
</g>
<g>
	<path class="st3" d="M94.8,47.4c0,26.2-21.2,47.4-47.4,47.4S0,73.6,0,47.4C0,21.2,21.2,0,47.4,0C73.6,0,94.8,21.2,94.8,47.4"/>
	<path class="st4" d="M111,0C98.8,0,87.6,4.6,79.2,12.3c-1.7,1.6-3.3,3.2-4.8,5H84c1.3,1.6,2.5,3.3,3.6,5H70.8c-1,1.6-1.9,3.3-2.7,5
		h22.3c0.8,1.6,1.4,3.3,2,5H66.1c-0.6,1.6-1,3.3-1.4,5h29c0.7,3.3,1.1,6.7,1.1,10c0,5.3-0.9,10.3-2.4,15.1H66.1c0.6,1.7,1.2,3.4,2,5
		h22.3c-0.8,1.7-1.7,3.4-2.7,5H70.8c1.1,1.7,2.3,3.4,3.6,5H84c-1.5,1.8-3.1,3.5-4.8,5c8.4,7.6,19.6,12.3,31.8,12.3
		c26.2,0,47.4-21.2,47.4-47.4C158.4,21.2,137.2,0,111,0"/>
	<path class="st1" d="M25.1,59.9H20l2.9-18.5l-6.6,18.5h-3.5l-0.4-18.4L9.3,59.9H4.5l4-24h7.4l0.2,14.9l5-14.9h8L25.1,59.9z"/>
	<path class="st1" d="M37.8,51.2c-0.5-0.1-0.8-0.1-1.1-0.1c-2.9,0-4.4,1-4.4,3c0,1.2,0.7,2,1.8,2C36.2,56.1,37.7,54.1,37.8,51.2
		L37.8,51.2z M41.6,59.9h-4.3l0.1-2c-1.3,1.6-3,2.4-5.4,2.4c-2.8,0-4.7-2.2-4.7-5.3c0-4.8,3.3-7.5,9-7.5c0.6,0,1.3,0.1,2.1,0.2
		c0.2-0.6,0.2-0.9,0.2-1.3c0-1.3-0.9-1.8-3.3-1.8c-2.5,0-4.6,0.6-5.4,0.9c0.1-0.3,0.7-4.4,0.7-4.4c2.6-0.8,4.3-1,6.2-1
		c4.4,0,6.8,2,6.8,5.7c0,1-0.2,2.2-0.4,3.9C42.6,52.3,41.7,58.4,41.6,59.9L41.6,59.9z M110.6,36.5l-0.8,5.2
		c-1.8-0.9-3.2-1.3-4.6-1.3c-3.8,0-6.5,3.7-6.5,9c0,3.6,1.8,5.9,4.8,5.9c1.3,0,2.7-0.4,4.4-1.2l-0.9,5.5c-1.9,0.5-3.1,0.7-4.5,0.7
		c-5.5,0-9-4-9-10.4c0-8.6,4.8-14.6,11.6-14.6C107.2,35.2,109.8,36.2,110.6,36.5 M118.9,51.2c-0.5-0.1-0.8-0.1-1.1-0.1
		c-2.9,0-4.4,1-4.4,3c0,1.2,0.7,2,1.8,2C117.3,56.1,118.8,54.1,118.9,51.2L118.9,51.2z M122.6,59.9h-4.3l0.1-2
		c-1.3,1.6-3,2.4-5.4,2.4c-2.8,0-4.7-2.2-4.7-5.3c0-4.8,3.3-7.5,9-7.5c0.6,0,1.3,0.1,2.1,0.2c0.2-0.6,0.2-0.9,0.2-1.3
		c0-1.3-0.9-1.8-3.3-1.8c-2.5,0-4.6,0.6-5.4,0.9c0.1-0.3,0.7-4.4,0.7-4.4c2.6-0.8,4.3-1,6.2-1c4.4,0,6.8,2,6.8,5.7
		c0,1-0.2,2.2-0.4,3.9C123.7,52.3,122.8,58.4,122.6,59.9L122.6,59.9z M64.4,59.6c-1.4,0.4-2.5,0.6-3.7,0.6c-2.6,0-4.1-1.5-4.1-4.3
		c0-0.9,0.4-3.1,0.7-5.2c0.3-1.8,2.2-13.3,2.2-13.3h5.1l-0.6,3h2.6L66,45h-2.6c-0.6,3.7-1.4,8.4-1.5,9c0,1,0.5,1.4,1.8,1.4
		c0.6,0,1-0.1,1.4-0.2L64.4,59.6z M80.1,59.4c-1.8,0.5-3.5,0.8-5.2,0.8c-5.7,0-8.7-3-8.7-8.7c0-6.7,3.8-11.6,9-11.6
		c4.2,0,6.9,2.8,6.9,7.1c0,1.4-0.2,2.8-0.6,4.8H71.2c-0.3,2.8,1.5,4,4.4,4c1.8,0,3.5-0.4,5.3-1.2L80.1,59.4z M77.2,47.8
		c0-0.4,0.5-3.5-2.4-3.5c-1.6,0-2.8,1.2-3.3,3.5H77.2z M44.6,46.5c0,2.5,1.2,4.2,3.9,5.5c2.1,1,2.4,1.3,2.4,2.2c0,1.2-0.9,1.8-3,1.8
		c-1.5,0-3-0.2-4.6-0.8c0,0-0.7,4.3-0.7,4.5c1.2,0.3,2.2,0.5,5.4,0.6c5.4,0,7.9-2.1,7.9-6.5c0-2.7-1-4.3-3.6-5.4
		c-2.2-1-2.4-1.2-2.4-2.1c0-1.1,0.9-1.6,2.5-1.6c1,0,2.4,0.1,3.7,0.3l0.7-4.5c-1.3-0.2-3.4-0.4-4.5-0.4
		C46.6,39.9,44.6,42.9,44.6,46.5 M149.9,59.9H145l0.2-1.8c-1.4,1.5-2.9,2.2-4.7,2.2c-3.7,0-6.2-3.2-6.2-8.1c0-6.5,3.8-12,8.4-12
		c2,0,3.5,0.8,4.9,2.7l1.1-6.9h5.1L149.9,59.9z M142.3,55.4c2.4,0,4.1-2.7,4.1-6.6c0-2.5-1-3.8-2.7-3.8c-2.3,0-4,2.7-4,6.6
		C139.6,54.1,140.5,55.4,142.3,55.4z M127.3,40.3c-0.6,6.1-1.8,12.2-2.7,18.2l-0.2,1.3h5.1c1.8-12,2.3-14.3,5.2-14
		c0.5-2.4,1.3-4.6,2-5.7c-2.2-0.4-3.4,0.8-4.9,3.1c0.1-1,0.4-2,0.3-3L127.3,40.3z M84.9,40.3c-0.6,6.1-1.8,12.2-2.7,18.2L82,59.9
		h5.1c1.8-12,2.3-14.3,5.2-14c0.5-2.4,1.3-4.6,2-5.7c-2.2-0.4-3.4,0.8-4.9,3.1c0.1-1,0.3-2,0.3-3L84.9,40.3z M152.1,58.3
		c0-0.8,0.7-1.5,1.5-1.5h0c0.8,0,1.5,0.7,1.5,1.5v0c0,0.8-0.7,1.5-1.5,1.5C152.8,59.9,152.1,59.2,152.1,58.3L152.1,58.3z
		 M153.7,59.5c0.6,0,1.2-0.5,1.2-1.2v0c0-0.6-0.5-1.2-1.2-1.2h0c-0.6,0-1.2,0.5-1.2,1.2C152.5,59,153,59.5,153.7,59.5L153.7,59.5z
		 M153.4,59h-0.3v-1.3h0.6c0.1,0,0.2,0,0.3,0.1c0.1,0.1,0.2,0.2,0.2,0.3c0,0.2-0.1,0.3-0.2,0.3l0.2,0.6h-0.3l-0.2-0.5h-0.2L153.4,59
		z M153.4,58.3h0.2c0.1,0,0.1,0,0.2,0c0.1,0,0.1-0.1,0.1-0.2c0-0.1,0-0.1-0.1-0.1c-0.1,0-0.1,0-0.2,0h-0.2L153.4,58.3z"/>
</g>
</svg>
